<?xml version="1.0" encoding="utf-8"?>
<!-- Generator: Adobe Illustrator 25.4.1, SVG Export Plug-In . SVG Version: 6.00 Build 0)  -->
<svg version="1.1" id="Layer_1" xmlns="http://www.w3.org/2000/svg" xmlns:xlink="http://www.w3.org/1999/xlink" x="0px" y="0px"
	 width="160px" height="52px" viewBox="0 0 160 52" style="enable-background:new 0 0 160 52;" xml:space="preserve">
<style type="text/css">
	.st0{clip-path:url(#SVGID_00000071530960718933790860000002247533484936234918_);}
	.st1{fill:#FFFFFF;}
</style>
<g>
	<defs>
		<rect id="SVGID_1_" x="0" width="160" height="52"/>
	</defs>
	<clipPath id="SVGID_00000152985895322012365040000005746433882939806615_">
		<use xlink:href="#SVGID_1_"  style="overflow:visible;"/>
	</clipPath>
	<g style="clip-path:url(#SVGID_00000152985895322012365040000005746433882939806615_);">
		<path class="st1" d="M63.8,39.1v-6h3.5v0.8h-2.7v5.3H63.8z"/>
		<path class="st1" d="M68.4,35.4c-0.9,0-1.2,0.9-1.2,1.7c0,0.8,0.3,1.7,1.2,1.7s1.3-0.9,1.3-1.7C69.6,36.3,69.3,35.4,68.4,35.4z
			 M66.5,35.7c0-0.3,0-0.5,0-0.8h0.8v0.6c0.3-0.6,0.8-0.8,1.4-0.8c1.2,0,1.8,1,1.8,2.2c0,1-0.5,2.2-2,2.2c-0.4,0-0.9-0.1-1.2-0.6
			v2.1h-0.8V35.7z"/>
		<path class="st1" d="M72.6,40.7h-0.8l0.6-1.5L70.7,35h0.9l1.3,3.2l1.3-3.2h0.9L72.6,40.7z"/>
		<path class="st1" d="M76.5,39.1h-0.8v-4.2h3.7v4.2h-0.9v-3.6h-2V39.1z"/>
		<path class="st1" d="M81.2,39.1h-0.8v-4.2H84v4.2h-0.8v-3.6h-2V39.1z"/>
		<path class="st1" d="M87.1,37.1c-0.5,0-1.2,0.3-1.2,0.8c0,0.5,0.4,0.8,0.8,0.8c0.9,0,1.2-0.8,1-1.5H87.1z M87.9,36.6
			c0-0.8,0-1.2-0.9-1.2c-0.4,0-0.8,0.3-0.8,0.6h-0.8c0-0.9,0.8-1.3,1.5-1.3c0.9,0,1.7,0.3,1.7,1.4v1.9c0,0.1,0,0.5,0,0.9h-0.5
			c-0.1,0-0.3,0-0.3,0c0-0.1,0-0.4,0-0.5c-0.3,0.5-0.8,0.8-1.3,0.8c-0.8,0-1.4-0.4-1.4-1.2c0-1.2,1-1.5,2-1.5H87.9z"/>
		<path class="st1" d="M92,39.1v-4.2h0.8v1.9l1.5-1.9h1l-1.8,2.1l1.9,2.2h-1l-1.7-2.1v2.1H92z"/>
		<path class="st1" d="M97.7,38.6c0.9,0,1.3-0.8,1.3-1.7s-0.3-1.7-1.3-1.7c-0.9,0-1.3,0.8-1.3,1.7C96.6,38,96.9,38.6,97.7,38.6z
			 M99.8,37.1c0,1.3-0.6,2.2-2,2.2c-1.4,0-2-0.9-2-2.2c0-1.3,0.6-2.2,2-2.2C99.2,34.9,99.8,35.8,99.8,37.1z"/>
		<path class="st1" d="M104.7,39.1v-3.2l-1.2,3.2h-0.6l-1.2-3.2h-0.1v3.2h-0.8v-4.2h1.2l1.2,3.2l1.2-3.2h1.2v4.2H104.7z"/>
		<path class="st1" d="M107.5,39.1h-0.8v-4.2h3.6v4.2h-0.8v-3.6h-2V39.1z"/>
		<path class="st1" d="M113.2,37.1c-0.5,0-1.2,0.3-1.2,0.8c0,0.5,0.4,0.8,0.8,0.8c0.9,0,1.2-0.8,1-1.5H113.2z M114,36.6
			c0-0.8,0-1.2-0.9-1.2c-0.4,0-0.8,0.3-0.8,0.6h-0.8c0-0.9,0.8-1.3,1.5-1.3c0.9,0,1.7,0.3,1.7,1.4v1.9c0,0.1,0,0.5,0,0.9h-0.5
			c-0.1,0-0.3,0-0.3,0c0-0.1,0-0.4,0-0.5c-0.3,0.5-0.8,0.8-1.3,0.8c-0.8,0-1.4-0.4-1.4-1.2c0-1.2,1-1.5,2.1-1.5H114z"/>
		<path class="st1" d="M116.8,39.1h-0.8v-4.2h0.8v1.8h2v-1.8h0.8v4.2h-0.8v-1.9h-2V39.1z"/>
		<path class="st1" d="M120.9,39.1v-4.2h0.8v3.2l1.9-3.2h0.9v4.2h-0.8V36h-0.1l-1.9,3.1H120.9z"/>
		<path class="st1" d="M127.6,33.7c0.4,0,0.8-0.3,0.8-0.6h0.4c0,0.6-0.5,1.2-1.2,1.2c-0.8,0-1.2-0.5-1.2-1.2h0.4
			C126.8,33.5,127.2,33.7,127.6,33.7z M125.8,39.1V35h0.8v3.1l1.9-3.1h0.9v4.1h-0.8V36l-1.9,3.1H125.8z"/>
		<path class="st1" d="M133.5,38.7c-0.3,0.4-0.6,0.5-0.9,0.5c-0.3,0-0.4-0.1-0.4-0.1v-0.8c0,0,0.1,0.1,0.3,0.1
			c0.3,0,0.5-0.3,0.6-0.5c0.4-0.6,0.4-1.3,0.4-3.1v-1.7h3.8v5.9h-0.8v-5.3h-2.2v1.5C134.1,37.2,134,38.1,133.5,38.7z"/>
		<path class="st1" d="M139.6,36.8h2.2l-1-2.8L139.6,36.8z M137.8,39.1l2.6-5.9h0.9l2.4,5.9h-0.9l-0.6-1.5h-2.8l-0.6,1.5H137.8z"/>
		<path class="st1" d="M144.2,39.1v-6h0.9v2.6h2.8v-2.6h0.8v6H148v-2.7h-2.8v2.7H144.2z"/>
		<path class="st1" d="M150.1,39.1v-6h0.8v4.6l2.8-4.6h0.9v6h-0.9v-4.6l-2.8,4.6H150.1z"/>
		<path class="st1" d="M157.2,33.9h-1.9v-0.8h4.7v0.8h-1.9v5.3h-0.9V33.9z"/>
		<path class="st1" d="M77.3,28.6h-2.8v-6.7h-7.8v6.7h-2.8V13.5h2.8v6.2h7.8v-6.2h2.8V28.6z"/>
		<path class="st1" d="M83.7,25.2c0.9,1.2,2.2,1.3,3.8,1.3c1.3,0,2.8,0,3.8-1.3c0.5-0.8,0.9-1.9,0.9-4.1c0-2.3-0.4-3.5-0.9-4.1
			c-1-1.3-2.6-1.3-3.8-1.3c-1.3,0-2.8,0-3.8,1.3c-0.6,0.8-1,1.9-1,4.1C82.8,23.2,83,24.3,83.7,25.2z M93.5,14.9
			c1.5,1.5,1.7,4.1,1.7,6c0,1.7,0,4.5-1.7,6c-1.7,1.5-4.2,1.5-6,1.5c-1.8,0-4.4,0-6-1.5c-1.8-1.7-1.8-4.4-1.8-6c0-2.1,0.1-4.5,1.8-6
			c1.7-1.5,4.1-1.5,6-1.5C89.3,13.3,91.9,13.3,93.5,14.9z"/>
		<path class="st1" d="M105.9,21c0.6,0,1.4,0,1.8-0.5c0.5-0.5,0.5-1.5,0.5-2.1c0-0.6,0-1.5-0.5-2.1c-0.5-0.5-1.3-0.5-1.8-0.5h-4.6
			c-0.1,0-0.4,0-0.6,0.3c-0.1,0.3-0.1,0.5-0.1,0.8v4.2h5.4V21z M97.7,28.6V15.8c0-0.5,0-1.2,0.5-1.7c0.5-0.5,1.2-0.6,1.7-0.6h7.2
			c0.8,0,2,0,2.9,0.9c1,1,1.2,2.7,1.2,4s-0.1,3.2-1.3,4.1c-0.5,0.4-1.4,0.6-2.3,0.6h-7v5.3h-2.8V28.6z"/>
		<path class="st1" d="M116.6,25.2c0,0.6,0,0.8,0.1,0.9c0.3,0.3,0.8,0.3,1,0.3h4.5c0.5,0,1,0,1.5-0.4c0.5-0.5,0.4-1.3,0.4-1.8
			c0-0.5,0-1.2-0.5-1.7c-0.4-0.4-1-0.4-1.4-0.4h-5.6V25.2z M126.4,15.7h-8.8c-0.3,0-0.6,0-0.8,0.1c-0.3,0.3-0.3,0.6-0.3,0.9v3.1h7.2
			c0.8,0,1.9,0.1,2.7,1.2c0.5,0.8,0.8,1.9,0.8,3.2c0,1.9-0.4,2.8-0.8,3.3c-0.4,0.4-1.2,1-2.6,1h-8.1c-0.8,0-1.3-0.3-1.5-0.6
			c-0.4-0.4-0.4-1-0.4-1.4V15.7c0-0.5,0.1-1.2,0.5-1.7c0.3-0.3,0.8-0.5,1.5-0.5h10.6v2.2H126.4z"/>
		<path class="st1" d="M141.2,28.6l0.1-11.5c0-0.3,0-0.5-0.3-0.5c-0.1,0-0.4,0.4-0.5,0.6l-6.1,10c-0.4,0.6-0.9,1.4-2.4,1.4
			c-2.2,0-2.2-1.7-2.2-2.6V13.5h2.8v11.2c0,0.4,0,0.6,0.3,0.6c0.1,0,0.3-0.3,0.4-0.5l6-9.9c0.8-1.3,1.5-1.7,2.6-1.7
			c2.3,0,2.3,1.9,2.3,2.7v12.5h-2.9V28.6z"/>
		<path class="st1" d="M151.4,28.6V15.7h-5.9v-2.2H160v2.2h-5.8v12.9H151.4z"/>
		<path class="st1" d="M39.6,17.4L32.9,0.9c-0.9-0.3-1.8-0.5-2.7-0.6l8.3,20.6L39.6,17.4z"/>
		<path class="st1" d="M41.1,11.8l-3.7-9c-0.9-0.5-1.9-0.9-2.9-1.3l5.8,13.9L41.1,11.8z"/>
		<path class="st1" d="M39.3,3.9l2.4,5.9l0.9-3.3C41.6,5.5,40.5,4.8,39.3,3.9z"/>
		<path class="st1" d="M38.1,23L28.7,0.1c-0.1,0-0.3,0-0.4,0C27.7,0,26.9,0,26.3,0L37,26.5L38.1,23z"/>
		<path class="st1" d="M22.4,0.3l13.1,31.9l1-3.5L24.7,0C24,0.1,23.2,0.1,22.4,0.3z"/>
		<path class="st1" d="M34.9,34.2L21,0.5c-0.8,0.1-1.5,0.4-2.2,0.5l15,36.7L34.9,34.2z"/>
		<path class="st1" d="M51.8,26.9c0-1-0.1-2.2-0.3-3.2l-5.3,18.5C49.6,38.1,51.8,32.8,51.8,26.9z"/>
		<path class="st1" d="M41.3,47.1c1-0.8,2-1.7,3.1-2.6l6.8-23.8c-0.4-1.3-0.8-2.6-1.3-3.9L41.3,47.1z"/>
		<path class="st1" d="M36.8,49.7c0.9-0.4,1.8-0.9,2.7-1.4l9.5-33.3c-0.5-0.9-1-1.9-1.5-2.7L36.8,49.7z"/>
		<path class="st1" d="M14.6,2.6c-0.9,0.5-1.8,1-2.7,1.5L2.7,36.7c0.5,1,0.9,1.9,1.5,2.8L14.6,2.6z"/>
		<path class="st1" d="M10.1,5.3C9.1,6,8.1,7,7.1,7.9L0.6,30.5c0.3,1.4,0.6,2.7,1.2,4L10.1,5.3z"/>
		<path class="st1" d="M0,25.1c0,0.8,0,1.5,0.1,2.3L5,10.3C1.8,14.3-0.1,19.4,0,25.1z"/>
		<path class="st1" d="M10.4,39.9l1-3.5L10.4,39.9z"/>
		<path class="st1" d="M11.9,34.4L18.7,51c0.9,0.3,1.8,0.5,2.7,0.6l-8.5-20.7L11.9,34.4z"/>
		<path class="st1" d="M12.2,48l-2.4-6l-0.9,3.3C9.9,46.2,11,47.1,12.2,48z"/>
		<path class="st1" d="M11.3,36.4l-0.9,3.5l3.7,9.1c0.9,0.5,1.9,1,2.9,1.4L11.3,36.4z"/>
		<path class="st1" d="M13.5,28.8l9.5,23c0.1,0,0.4,0,0.5,0c0.6,0,1.3,0.1,1.9,0.1L14.5,25.2L13.5,28.8z"/>
		<path class="st1" d="M29.2,51.9L16.1,19.7l-1,3.5L26.9,52C27.7,52,28.4,51.9,29.2,51.9z"/>
		<path class="st1" d="M16.7,17.5l14,34.1c0.8-0.1,1.5-0.3,2.2-0.5L17.7,14L16.7,17.5z"/>
	</g>
</g>
</svg>
